HIERARCHY
ROOT Hips
{
	OFFSET 0.000000 0.000000 0.000000
	CHANNELS 6 Xposition Yposition Zposition Zrotation Yrotation Xrotation 
	JOINT LHipJoint
	{
		OFFSET 0.000000 0.000000 0.000000
		CHANNELS 3 Zrotation Yrotation Xrotation
		JOINT LeftUpLeg
		{
			OFFSET 1.363060 -1.794630 0.839290
			CHANNELS 3 Zrotation Yrotation Xrotation
			JOINT LeftLeg
			{
				OFFSET 2.448110 -6.726130 0.000000
				CHANNELS 3 Zrotation Yrotation Xrotation
				JOINT LeftFoot
				{
					OFFSET 2.562200 -7.039590 0.000000
					CHANNELS 3 Zrotation Yrotation Xrotation
					JOINT LeftToeBase
					{
						OFFSET 0.157640 -0.433110 2.322550
						CHANNELS 3 Zrotation Yrotation Xrotation
						End Site
						{
							OFFSET 0.000000 0.000000 0.000000
						}
					}
				}
			}
		}
	}
	JOINT RHipJoint
	{
		OFFSET 0.000000 0.000000 0.000000
		CHANNELS 3 Zrotation Yrotation Xrotation
		JOINT RightUpLeg
		{
			OFFSET -1.305520 -1.794630 0.839290
			CHANNELS 3 Zrotation Yrotation Xrotation
			JOINT RightLeg
			{
				OFFSET -2.542530 -6.985550 0.000000
				CHANNELS 3 Zrotation Yrotation Xrotation
				JOINT RightFoot
				{
					OFFSET -2.568260 -7.056230 0.000000
					CHANNELS 3 Zrotation Yrotation Xrotation
					JOINT RightToeBase
					{
						OFFSET -0.164730 -0.452590 2.363150
						CHANNELS 3 Zrotation Yrotation Xrotation
						End Site
						{
							OFFSET 0.000000 0.000000 0.000000
						}
					}
				}
			}
		}
	}
	JOINT LowerBack
	{
		OFFSET 0.000000 0.000000 0.000000
		CHANNELS 3 Zrotation Yrotation Xrotation
		JOINT Spine
		{
			OFFSET 0.028270 2.035590 -0.193380
			CHANNELS 3 Zrotation Yrotation Xrotation
			JOINT Spine1
			{
				OFFSET 0.056720 2.048850 -0.042750
				CHANNELS 3 Zrotation Yrotation Xrotation
				JOINT Neck
				{
					OFFSET 0.000000 0.000000 0.000000
					CHANNELS 3 Zrotation Yrotation Xrotation
					JOINT Neck1
					{
						OFFSET -0.054170 1.746240 0.172020
						CHANNELS 3 Zrotation Yrotation Xrotation
						JOINT Head
						{
							OFFSET 0.104070 1.761360 -0.123970
							CHANNELS 3 Zrotation Yrotation Xrotation
							End Site
							{
								OFFSET 0.000000 0.000000 0.000000
							}
						}
					}
				}
				JOINT LeftShoulder
				{
					OFFSET 0.000000 0.000000 0.000000
					CHANNELS 3 Zrotation Yrotation Xrotation
					JOINT LeftArm
					{
						OFFSET 3.362410 1.200890 -0.311210
						CHANNELS 3 Zrotation Yrotation Xrotation
						JOINT LeftForeArm
						{
							OFFSET 4.983000 -0.000000 -0.000000
							CHANNELS 3 Zrotation Yrotation Xrotation
							JOINT LeftHand
							{
								OFFSET 3.483560 -0.000000 -0.000000
								CHANNELS 3 Zrotation Yrotation Xrotation
								JOINT LeftFingerBase
								{
									OFFSET 0.000000 0.000000 0.000000
									CHANNELS 3 Zrotation Yrotation Xrotation
									JOINT LeftHandIndex1
									{
										OFFSET 0.715260 -0.000000 -0.000000
										CHANNELS 3 Zrotation Yrotation Xrotation
										End Site
										{
											OFFSET 0.000000 0.000000 0.000000
										}
									}
								}
								JOINT LThumb
								{
									OFFSET 0.000000 0.000000 0.000000
									CHANNELS 3 Zrotation Yrotation Xrotation
									End Site
									{
										OFFSET 0.000000 0.000000 0.000000
									}
								}
							}
						}
					}
				}
				JOINT RightShoulder
				{
					OFFSET 0.000000 0.000000 0.000000
					CHANNELS 3 Zrotation Yrotation Xrotation
					JOINT RightArm
					{
						OFFSET -3.136600 1.374050 -0.404650
						CHANNELS 3 Zrotation Yrotation Xrotation
						JOINT RightForeArm
						{
							OFFSET -5.241900 -0.000000 -0.000000
							CHANNELS 3 Zrotation Yrotation Xrotation
							JOINT RightHand
							{
								OFFSET -3.444170 -0.000000 -0.000000
								CHANNELS 3 Zrotation Yrotation Xrotation
								JOINT RightFingerBase
								{
									OFFSET 0.000000 0.000000 0.000000
									CHANNELS 3 Zrotation Yrotation Xrotation
									JOINT RightHandIndex1
									{
										OFFSET -0.622530 -0.000000 -0.000000
										CHANNELS 3 Zrotation Yrotation Xrotation
										End Site
										{
											OFFSET 0.000000 0.000000 0.000000
										}
									}
								}
								JOINT RThumb
								{
									OFFSET 0.000000 0.000000 0.000000
									CHANNELS 3 Zrotation Yrotation Xrotation
									End Site
									{
										OFFSET 0.000000 0.000000 0.000000
									}
								}
							}
						}
					}
				}
			}
		}
	}
}
MOTION
Frames: 10
Frame Time: 0.008333
18.424549 16.721691 1.233094 139.597219 -87.865634 -87.140108 -8.683429 -0.788314 3.131949 -9.178585 -7.164091 -61.201737 -3.083250 -1.395000 14.192779 3.159508 11.947760 -10.021879 0.535100 -0.000001 -36.287200 8.352950 0.388574 4.851881 3.344228 7.569842 -61.571021 2.670805 1.140337 13.310456 -3.240253 -9.885826 -9.793180 -1.086900 0.000000 -58.236500 0.332341 -2.199943 -4.012601 -0.699056 -2.419008 -3.561517 -5.725219 -2.622895 1.854053 10.669434 -11.565386 -12.690034 -2.477609 -0.114820 -1.795488 0.000000 0.000000 0.000000 -4.603971 12.644575 2.779453 -59.478429 34.284359 3.377302 -2.648408 -8.162043 0.006394 3.355292 -0.315751 -0.006594 -0.113820 -0.098337 0.000000 0.000000 0.000000 0.000000 0.000000 0.000000 0.000000 16.526745 -10.893258 3.166902 58.691780 -34.264004 -24.071891 2.233822 0.722735 0.002752 -11.346192 3.230062 -0.331045 0.203082 -0.043812 -0.000000 0.000000 0.000000 0.000000 0.000000 0.000000 0.000000 
18.397766 16.650888 1.234619 136.964424 -87.917101 -83.805768 -8.613973 -0.756054 3.292105 -8.919849 -7.747999 -63.226853 -3.027784 -1.133994 16.719329 3.335705 12.082895 -11.283292 0.257101 0.000000 -36.094501 8.331304 0.391233 5.020729 2.935670 7.995573 -63.754561 2.555277 0.796474 16.200260 -3.466664 -10.144732 -11.175714 -0.832100 0.000000 -57.665301 0.410140 -2.203181 -4.314189 -0.701230 -2.438898 -3.649294 -5.798230 -2.645665 1.840534 10.710535 -11.335989 -12.667753 -2.554767 -0.122068 -1.796123 0.000000 0.000000 0.000000 -4.698488 12.232345 2.824762 -59.718371 33.230450 3.805221 -2.635876 -8.607082 0.005240 3.188188 0.049034 0.004198 -0.108505 -0.095973 0.000000 0.000000 0.000000 0.000000 0.000000 0.000000 0.000000 16.800621 -10.651686 3.233994 59.308190 -33.057917 -24.097748 2.185240 0.906536 0.001734 -11.451733 3.084710 -0.319345 0.199610 -0.045004 -0.000000 0.000000 0.000000 0.000000 0.000000 0.000000 0.000000 
18.370416 16.572735 1.236420 134.173837 -87.969525 -80.355414 -8.550540 -0.727862 3.445828 -8.650794 -8.309794 -65.289004 -2.956545 -0.844753 19.407780 3.516258 12.225912 -12.582250 -0.040200 -0.000000 -35.936200 8.311436 0.405811 5.181912 2.500884 8.421763 -65.956229 2.412447 0.428762 19.255193 -3.706666 -10.457972 -12.585309 -0.556600 -0.000001 -57.078200 0.494739 -2.207367 -4.610851 -0.701065 -2.460106 -3.734643 -5.869570 -2.669530 1.830227 10.740663 -11.111098 -12.638690 -2.632080 -0.129415 -1.794271 0.000000 0.000000 0.000000 -4.787517 11.827045 2.869534 -59.938627 32.122210 4.168007 -2.624700 -9.058470 0.004138 3.030797 0.425180 0.014192 -0.103583 -0.093145 0.000000 0.000000 0.000000 0.000000 0.000000 0.000000 0.000000 17.063534 -10.414699 3.295740 59.897292 -31.804424 -24.056843 2.139150 1.132319 0.000610 -11.553855 2.885327 -0.301645 0.196256 -0.045907 -0.000000 0.000000 0.000000 0.000000 0.000000 0.000000 0.000000 
18.342700 16.486886 1.238502 131.156186 -88.025483 -76.726321 -8.493572 -0.706646 3.592349 -8.366346 -8.848280 -67.371704 -2.865894 -0.529940 22.247435 3.700413 12.385268 -13.908693 -0.355600 -0.000000 -35.807600 8.293678 0.435086 5.332150 2.049066 8.840401 -68.151575 2.243069 0.043587 22.451794 -3.957112 -10.823826 -14.018287 -0.256299 0.000000 -56.452199 0.587619 -2.211196 -4.899359 -0.697795 -2.481244 -3.816813 -5.938224 -2.692959 1.821123 10.761892 -10.897959 -12.601299 -2.710056 -0.136936 -1.789371 0.000000 0.000000 0.000000 -4.869603 11.430168 2.906802 -60.133089 30.957333 4.457089 -2.618829 -9.416104 0.003520 2.852486 0.499431 0.015090 -0.099096 -0.088495 0.000000 0.000000 0.000000 0.000000 0.000000 0.000000 0.000000 17.319593 -10.191692 3.350513 60.449911 -30.522490 -23.856827 2.099788 1.431917 -0.000601 -11.636270 2.616944 -0.275947 0.193011 -0.046286 -0.000000 0.000000 0.000000 0.000000 0.000000 0.000000 0.000000 
18.314630 16.393273 1.240865 127.800040 -88.086734 -72.819269 -8.442512 -0.695074 3.731110 -8.062059 -9.362795 -69.455710 -2.752828 -0.193543 25.224296 3.886860 12.567270 -15.253601 -0.688600 -0.000000 -35.700500 8.278589 0.481715 5.468138 1.591699 9.242242 -70.314369 2.049722 -0.352429 25.765478 -4.213882 -11.236605 -15.474870 0.073400 0.000000 -55.760200 0.690970 -2.217041 -5.176852 -0.691875 -2.504980 -3.894178 -6.007268 -2.718727 1.816580 10.780059 -10.692663 -12.556914 -2.787296 -0.144462 -1.781612 0.000000 0.000000 0.000000 -4.950646 11.041627 2.946690 -60.301811 29.736620 4.719533 -2.610985 -9.846724 0.002591 2.718793 0.844133 0.022786 -0.094985 -0.084705 -0.000000 0.000000 0.000000 0.000000 0.000000 0.000000 0.000000 17.569880 -9.977484 3.395371 60.954043 -29.190972 -23.624546 2.065840 1.725159 -0.001708 -11.668448 2.379548 -0.252045 0.189610 -0.046986 -0.000000 0.000000 0.000000 0.000000 0.000000 0.000000 0.000000 
18.286022 16.291836 1.243487 123.972177 -88.153919 -68.506021 -8.396566 -0.694704 3.862089 -7.735543 -9.853217 -71.520964 -2.615584 0.158785 28.319485 4.073850 12.775818 -16.609614 -1.039201 0.000000 -35.604200 8.267438 0.547790 5.587442 1.141358 9.617742 -72.420261 1.837014 -0.752588 29.169541 -4.471701 -11.685794 -16.957477 0.437500 -0.000001 -54.978200 0.806339 -2.224004 -5.441505 -0.682439 -2.530439 -3.966696 -6.075993 -2.745882 1.813798 10.796435 -10.493279 -12.502579 -2.864970 -0.152147 -1.770045 0.000000 0.000000 0.000000 -5.032530 10.661197 2.981975 -60.436747 28.461605 4.968562 -2.604938 -10.248943 0.001808 2.599832 1.133772 0.028484 -0.091248 -0.080374 -0.000000 0.000000 0.000000 0.000000 0.000000 0.000000 0.000000 17.817263 -9.773571 3.429659 61.402954 -27.815125 -23.369573 2.038337 1.993151 -0.002618 -11.636282 2.216295 -0.234443 0.185962 -0.048266 -0.000000 0.000000 0.000000 0.000000 0.000000 0.000000 0.000000 
18.256750 16.182789 1.246316 119.526351 -88.225878 -63.648438 -8.354049 -0.705923 3.985318 -7.386519 -10.320037 -73.546136 -2.453728 0.520474 31.510101 4.259272 13.012421 -17.970820 -1.407701 -0.000000 -35.506900 8.262058 0.635461 5.687717 0.710794 9.957046 -74.445033 1.610590 -1.151071 32.636615 -4.724938 -12.159422 -18.468081 0.839600 0.000000 -54.089400 0.933686 -2.232251 -5.691435 -0.669926 -2.557948 -4.033931 -6.146459 -2.774803 1.812385 10.816340 -10.297063 -12.437973 -2.943950 -0.160063 -1.754464 0.000000 0.000000 0.000000 -5.117584 10.285055 3.014559 -60.534784 27.132563 5.227389 -2.599350 -10.648637 0.001017 2.512030 1.486806 0.035483 -0.087855 -0.076048 0.000000 0.000000 0.000000 0.000000 0.000000 0.000000 0.000000 18.070033 -9.577082 3.451909 61.791504 -26.399712 -23.090236 2.018366 2.222284 -0.003250 -11.531734 2.165493 -0.227240 0.181999 -0.050329 -0.000000 0.000000 0.000000 0.000000 0.000000 0.000000 0.000000 
18.226513 16.066488 1.249326 114.346239 -88.298964 -58.134195 -8.313598 -0.727449 4.101307 -7.018092 -10.764357 -75.510628 -2.268395 0.884462 34.769412 4.440954 13.276771 -19.332532 -1.794600 0.000000 -35.400200 8.264393 0.746382 5.767727 0.311180 10.251348 -76.368476 1.376680 -1.543052 36.138976 -4.967756 -12.643873 -20.006340 1.281400 0.000000 -53.091901 1.070893 -2.240164 -5.926030 -0.654630 -2.585878 -4.096408 -6.219005 -2.803869 1.809328 10.842823 -10.099697 -12.360620 -3.026317 -0.168435 -1.734113 0.000000 0.000000 0.000000 -5.205947 9.909227 3.039531 -60.593311 25.745776 5.492696 -2.596777 -10.951689 0.000553 2.446638 1.645849 0.037885 -0.084854 -0.070807 0.000000 0.000000 0.000000 0.000000 0.000000 0.000000 0.000000 18.336728 -9.385544 3.462043 62.116764 -24.957871 -22.754661 2.007233 2.414382 -0.003554 -11.356799 2.251677 -0.232831 0.177726 -0.053245 -0.000000 0.000000 0.000000 0.000000 0.000000 0.000000 0.000000 
18.182719 15.930844 1.276267 77.924539 -88.858899 -21.100187 -8.215598 -0.530967 4.592861 -5.634217 -11.642332 -78.270503 -1.898193 1.202818 38.156484 4.648834 13.638399 -20.476869 -2.105300 0.000000 -35.618600 8.349384 0.993328 5.851945 0.677602 10.401334 -78.433962 1.291795 -1.941520 39.509409 -5.240932 -13.184560 -21.664876 1.792200 0.000000 -51.781700 2.218097 -2.205417 -6.587206 -0.377368 -2.655522 -4.255389 -6.296108 -2.877899 1.831210 10.658009 -9.892502 -12.262148 -3.098236 -0.176844 -1.694664 0.000000 0.000000 0.000000 -5.671402 9.682404 3.039037 -60.612556 24.391080 5.857466 -2.561446 -11.206671 0.000392 2.417542 1.643986 0.037290 -0.080851 -0.064766 -0.000000 0.000000 0.000000 0.000000 0.000000 0.000000 0.000000 18.264214 -9.212857 3.428925 62.185306 -23.616524 -22.341749 2.068291 2.533563 -0.003214 -11.087950 2.548347 -0.256922 0.176372 -0.057344 -0.000000 0.000000 0.000000 0.000000 0.000000 0.000000 0.000000 
18.150290 15.802096 1.279383 72.747071 -88.839193 -15.751700 -8.207840 -0.549397 4.699777 -5.263508 -12.016645 -80.057001 -1.677123 1.554811 41.444994 4.815808 13.953688 -21.824633 -2.525800 0.000000 -35.505300 8.341521 1.168850 5.884120 0.345603 10.603308 -80.108380 1.053197 -2.309544 43.018697 -5.448824 -13.644347 -23.239357 2.311400 -0.000000 -50.628800 2.301960 -2.194385 -6.791218 -0.375326 -2.664901 -4.309440 -6.375698 -2.888341 1.820207 10.714829 -9.677887 -12.157627 -3.191920 -0.186473 -1.664349 0.000000 0.000000 0.000000 -5.752920 9.295653 3.051287 -60.606770 22.875518 6.155892 -2.562863 -11.290369 0.000442 2.458350 1.502142 0.034599 -0.078743 -0.058506 -0.000000 0.000000 0.000000 0.000000 0.000000 0.000000 0.000000 18.591816 -9.007110 3.415825 62.389681 -22.163647 -21.748551 2.077010 2.689592 -0.002776 -10.812959 2.953635 -0.289908 0.171563 -0.061934 -0.000000 0.000000 0.000000 0.000000 0.000000 0.000000 0.000000 
